<svg xmlns="http://www.w3.org/2000/svg" width="23" height="17" fill="none" viewBox="0 0 23 17"><path fill="url(#paint0_linear_775_236)" d="M13.2273 5.23288C13.2273 5.13866 13.2615 5.04181 13.3297 4.94235C13.3979 4.8429 13.4741 4.77747 13.558 4.74605C14.0668 4.55815 14.5868 4.41296 15.1182 4.31047C15.6496 4.20798 16.2085 4.15673 16.7949 4.15673C17.1613 4.15673 17.5232 4.17809 17.8806 4.22079C18.2379 4.2635 18.5861 4.32755 18.9253 4.41296C19.027 4.44712 19.1203 4.51028 19.2051 4.60244C19.2899 4.69461 19.3323 4.7983 19.3323 4.9135C19.3323 5.10934 19.2687 5.2585 19.1415 5.36099C19.0143 5.46348 18.8574 5.48911 18.6709 5.43786C18.386 5.35245 18.0858 5.2884 17.7704 5.24569C17.455 5.20299 17.1277 5.18164 16.7886 5.18164C16.2968 5.18164 15.8219 5.22861 15.3641 5.32256C14.9062 5.41651 14.4568 5.55743 14.0159 5.74533C13.7785 5.83074 13.5877 5.82647 13.4436 5.73252C13.2994 5.63857 13.2273 5.47202 13.2273 5.23288ZM13.2273 10.8698C13.2273 10.7707 13.2615 10.6687 13.3297 10.564C13.3979 10.4593 13.4741 10.3904 13.558 10.3574C14.0668 10.1695 14.5868 10.0286 15.1182 9.93462C15.6496 9.84067 16.2085 9.79369 16.7949 9.79369C17.1613 9.79369 17.5232 9.81504 17.8806 9.85775C18.2379 9.90045 18.5861 9.96451 18.9253 10.0499C19.027 10.0841 19.1203 10.1472 19.2051 10.2394C19.2899 10.3316 19.3323 10.4353 19.3323 10.5505C19.3323 10.7463 19.2687 10.8955 19.1415 10.998C19.0143 11.1004 18.8574 11.1261 18.6709 11.0748C18.386 10.9894 18.0858 10.9254 17.7704 10.8827C17.455 10.8399 17.1277 10.8186 16.7886 10.8186C16.2968 10.8186 15.8219 10.8613 15.3641 10.9467C14.9062 11.0321 14.4568 11.1688 14.0159 11.3567C13.7785 11.4421 13.5877 11.4421 13.4436 11.3567C13.2994 11.2713 13.2273 11.109 13.2273 10.8698ZM13.2273 8.05136C13.2273 7.95714 13.2615 7.86029 13.3297 7.76083C13.3979 7.66138 13.4741 7.59595 13.558 7.56453C14.0668 7.37663 14.5868 7.23144 15.1182 7.12895C15.6496 7.02646 16.2085 6.97521 16.7949 6.97521C17.1613 6.97521 17.5232 6.99657 17.8806 7.03927C18.2379 7.08197 18.5861 7.14603 18.9253 7.23144C19.027 7.2656 19.1203 7.32876 19.2051 7.42092C19.2899 7.51309 19.3323 7.61678 19.3323 7.73197C19.3323 7.92782 19.2687 8.07698 19.1415 8.17947C19.0143 8.28196 18.8574 8.30759 18.6709 8.25634C18.386 8.17093 18.0858 8.10688 17.7704 8.06417C17.455 8.02147 17.1277 8.00011 16.7886 8.00011C16.2968 8.00011 15.8219 8.04709 15.3641 8.14104C14.9062 8.23499 14.4568 8.37591 14.0159 8.56381C13.7785 8.64922 13.5877 8.64495 13.4436 8.551C13.2994 8.45705 13.2273 8.2905 13.2273 8.05136ZM5.29094 13.1246C6.19932 13.1246 7.08354 13.2314 7.9436 13.4449C8.80367 13.6584 9.64918 13.9787 10.4801 14.4057V3.46493C9.71701 2.95248 8.88929 2.55533 7.99697 2.27348C7.10467 1.99163 6.20266 1.85071 5.29094 1.85071C4.64653 1.85071 4.01484 1.93184 3.39587 2.09412C2.77689 2.2564 2.15368 2.45711 1.52623 2.69625V13.8164C2.05193 13.5773 2.64971 13.4022 3.31955 13.2912C3.9894 13.1801 4.64653 13.1246 5.29094 13.1246ZM12.0064 14.4057C12.8543 13.9787 13.6852 13.6584 14.4992 13.4449C15.3132 13.2314 16.1781 13.1246 17.0938 13.1246C17.7382 13.1246 18.4038 13.1759 19.0906 13.2784C19.7774 13.3808 20.3667 13.5175 20.8585 13.6883V2.69625C20.2819 2.40586 19.6729 2.19234 19.0316 2.05569C18.3901 1.91903 17.7442 1.85071 17.0938 1.85071C16.1781 1.85071 15.292 1.99163 14.4356 2.27348C13.5792 2.55533 12.7695 2.95248 12.0064 3.46493V14.4057ZM11.2432 16.4299C11.1154 16.4299 10.9944 16.4171 10.8803 16.3915C10.7661 16.3659 10.6667 16.3189 10.5819 16.2506C9.78484 15.7552 8.93823 15.3709 8.04205 15.0976C7.14584 14.8243 6.22881 14.6876 5.29094 14.6876C4.67134 14.6876 4.06281 14.7645 3.46536 14.9182C2.86789 15.0719 2.27239 15.2598 1.67886 15.4819C1.28712 15.6698 0.90938 15.6442 0.545628 15.405C0.181876 15.1659 0 14.8243 0 14.3801V2.51689C0 2.26067 0.0593535 2.02579 0.17806 1.81227C0.296767 1.59875 0.474828 1.43221 0.712242 1.31263C1.42448 0.971 2.16551 0.719045 2.93533 0.556769C3.70512 0.394493 4.49033 0.313354 5.29094 0.313354C6.3593 0.313354 7.39799 0.458549 8.40699 0.748938C9.416 1.03933 10.3614 1.48345 11.2432 2.08131C12.1081 1.48345 13.0366 1.03933 14.0286 0.748938C15.0207 0.458549 16.0424 0.313354 17.0938 0.313354C17.8886 0.313354 18.6681 0.394493 19.4323 0.556769C20.1966 0.719045 20.9348 0.971 21.6471 1.31263C21.8845 1.43221 22.0668 1.59875 22.194 1.81227C22.3211 2.02579 22.3847 2.26067 22.3847 2.51689V14.3801C22.3847 14.8566 22.194 15.2191 21.8124 15.4677C21.4308 15.7163 21.0535 15.721 20.6804 15.4819C20.1039 15.2428 19.5168 15.0506 18.9194 14.9054C18.3219 14.7602 17.7134 14.6876 17.0938 14.6876C16.1734 14.6876 15.2735 14.8243 14.394 15.0976C13.5145 15.3709 12.6847 15.7552 11.9046 16.2506C11.8198 16.3189 11.7204 16.3659 11.6062 16.3915C11.4921 16.4171 11.3711 16.4299 11.2432 16.4299Z"/><defs><linearGradient id="paint0_linear_775_236" x1="11.192" x2="11.192" y1=".313" y2="16.43" gradientUnits="userSpaceOnUse"><stop stop-color="#7ECEFC"/><stop offset="1" stop-color="#547EEC"/></linearGradient></defs></svg>