<svg width="100" height="100" viewBox="0 0 100 100" fill="none" xmlns="http://www.w3.org/2000/svg">
<path d="M23.3438 39.1564L10.8438 26.6564C10.4049 26.2169 10.1583 25.6212 10.1583 25.0001C10.1583 24.379 10.4049 23.7833 10.8438 23.3439L23.3438 10.8439C23.5583 10.6136 23.8171 10.4289 24.1046 10.3008C24.3921 10.1727 24.7024 10.1038 25.0171 10.0983C25.3318 10.0927 25.6444 10.1506 25.9363 10.2685C26.2281 10.3864 26.4932 10.5618 26.7158 10.7844C26.9383 11.0069 27.1138 11.272 27.2316 11.5639C27.3495 11.8557 27.4074 12.1683 27.4019 12.483C27.3963 12.7977 27.3274 13.108 27.1993 13.3955C27.0712 13.683 26.8865 13.9418 26.6563 14.1564L15.8164 25.0001L26.6563 35.8439C26.8865 36.0584 27.0712 36.3172 27.1993 36.6047C27.3274 36.8922 27.3963 37.2025 27.4019 37.5172C27.4074 37.8319 27.3495 38.1445 27.2316 38.4364C27.1138 38.7282 26.9383 38.9933 26.7158 39.2159C26.4932 39.4384 26.2281 39.6139 25.9363 39.7317C25.6444 39.8496 25.3318 39.9075 25.0171 39.902C24.7024 39.8964 24.3921 39.8275 24.1046 39.6994C23.8171 39.5713 23.5583 39.3866 23.3438 39.1564ZM38.9688 39.1564C39.4082 39.5953 40.0039 39.8418 40.625 39.8418C41.2461 39.8418 41.8418 39.5953 42.2813 39.1564L54.7813 26.6564C55.2202 26.2169 55.4667 25.6212 55.4667 25.0001C55.4667 24.379 55.2202 23.7833 54.7813 23.3439L42.2813 10.8439C42.0667 10.6136 41.8079 10.4289 41.5204 10.3008C41.2329 10.1727 40.9226 10.1038 40.6079 10.0983C40.2932 10.0927 39.9806 10.1506 39.6888 10.2685C39.3969 10.3864 39.1318 10.5618 38.9093 10.7844C38.6867 11.0069 38.5113 11.272 38.3934 11.5639C38.2755 11.8557 38.2176 12.1683 38.2232 12.483C38.2287 12.7977 38.2976 13.108 38.4257 13.3955C38.5538 13.683 38.7385 13.9418 38.9688 14.1564L49.8086 25.0001L38.9688 35.8439C38.5299 36.2833 38.2833 36.879 38.2833 37.5001C38.2833 38.1212 38.5299 38.7169 38.9688 39.1564ZM78.125 16.4064H68.75C68.1284 16.4064 67.5323 16.6533 67.0927 17.0928C66.6532 17.5324 66.4063 18.1285 66.4063 18.7501C66.4063 19.3717 66.6532 19.9679 67.0927 20.4074C67.5323 20.8469 68.1284 21.0939 68.75 21.0939H78.125C78.3322 21.0939 78.5309 21.1762 78.6774 21.3227C78.824 21.4692 78.9063 21.6679 78.9063 21.8751V78.1251C78.9063 78.3323 78.824 78.531 78.6774 78.6775C78.5309 78.8241 78.3322 78.9064 78.125 78.9064H21.875C21.6678 78.9064 21.4691 78.8241 21.3226 78.6775C21.1761 78.531 21.0938 78.3323 21.0938 78.1251V53.1251C21.0938 52.5035 20.8468 51.9074 20.4073 51.4678C19.9678 51.0283 19.3716 50.7814 18.75 50.7814C18.1284 50.7814 17.5323 51.0283 17.0927 51.4678C16.6532 51.9074 16.4063 52.5035 16.4063 53.1251V78.1251C16.4063 79.5755 16.9824 80.9665 18.008 81.9921C19.0336 83.0177 20.4246 83.5939 21.875 83.5939H78.125C79.5754 83.5939 80.9664 83.0177 81.992 81.9921C83.0176 80.9665 83.5938 79.5755 83.5938 78.1251V21.8751C83.5938 20.4247 83.0176 19.0337 81.992 18.0081C80.9664 16.9825 79.5754 16.4064 78.125 16.4064Z" fill="url(#paint0_linear_1603_22)"/>
<defs>
<linearGradient id="paint0_linear_1603_22" x1="46.876" y1="10.0979" x2="46.876" y2="83.5939" gradientUnits="userSpaceOnUse">
<stop stop-color="#7ECEFC"/>
<stop offset="1" stop-color="#547EEC"/>
</linearGradient>
</defs>
</svg>
