<svg width="100" height="100" viewBox="0 0 100 100" fill="none" xmlns="http://www.w3.org/2000/svg">
<path d="M68.75 8.03125H31.25C28.9708 8.03125 26.7849 8.93666 25.1733 10.5483C23.5617 12.1599 22.6562 14.3458 22.6562 16.625V85.375C22.6562 87.6542 23.5617 89.8401 25.1733 91.4517C26.7849 93.0633 28.9708 93.9688 31.25 93.9688H68.75C71.0292 93.9688 73.2151 93.0633 74.8267 91.4517C76.4383 89.8401 77.3438 87.6542 77.3438 85.375V16.625C77.3438 14.3458 76.4383 12.1599 74.8267 10.5483C73.2151 8.93666 71.0292 8.03125 68.75 8.03125ZM72.6562 85.375C72.6562 86.411 72.2447 87.4046 71.5121 88.1371C70.7796 88.8697 69.786 89.2812 68.75 89.2812H31.25C30.214 89.2812 29.2204 88.8697 28.4879 88.1371C27.7553 87.4046 27.3438 86.411 27.3438 85.375V16.625C27.3438 15.589 27.7553 14.5954 28.4879 13.8629C29.2204 13.1303 30.214 12.7188 31.25 12.7188H68.75C69.786 12.7188 70.7796 13.1303 71.5121 13.8629C72.2447 14.5954 72.6562 15.589 72.6562 16.625V85.375ZM53.9062 24.4375C53.9062 25.2101 53.6772 25.9653 53.2479 26.6077C52.8187 27.2501 52.2086 27.7507 51.4949 28.0464C50.7811 28.3421 49.9957 28.4194 49.2379 28.2687C48.4802 28.118 47.7842 27.7459 47.2379 27.1996C46.6916 26.6533 46.3195 25.9573 46.1688 25.1996C46.0181 24.4418 46.0954 23.6564 46.3911 22.9426C46.6868 22.2289 47.1874 21.6188 47.8298 21.1896C48.4722 20.7603 49.2274 20.5312 50 20.5312C51.036 20.5312 52.0296 20.9428 52.7621 21.6754C53.4947 22.4079 53.9062 23.4015 53.9062 24.4375Z" fill="url(#paint0_linear_1599_18)"/>
<defs>
<linearGradient id="paint0_linear_1599_18" x1="50" y1="8.03125" x2="50" y2="93.9688" gradientUnits="userSpaceOnUse">
<stop stop-color="#7ECEFC"/>
<stop offset="1" stop-color="#547EEC"/>
</linearGradient>
</defs>
</svg>
