<svg width="391" height="489" viewBox="0 0 391 489" fill="none" xmlns="http://www.w3.org/2000/svg">
<path d="M83.2 0.259997L80.14 21.32H36.22V51.2H74.56V71.9H36.22V103.76H83.2V125H6.7V0.259997H83.2ZM159.046 57.68L195.046 125H162.826L141.406 77.48L120.346 125H89.0261L123.946 58.76L91.7261 0.259997H123.766L141.766 40.22L160.666 0.259997H191.986L159.046 57.68ZM246.356 0.259997C262.796 0.259997 275.576 3.68 284.696 10.52C293.816 17.36 298.376 27.5 298.376 40.94C298.376 54.98 293.876 65.6 284.876 72.8C275.996 79.88 264.056 83.42 249.056 83.42H235.556V125H206.036V0.259997H246.356ZM246.536 62.18C253.496 62.18 258.776 60.56 262.376 57.32C266.096 53.96 267.956 48.5 267.956 40.94C267.956 27.86 260.636 21.32 245.996 21.32H235.556V62.18H246.536ZM390.466 0.259997L387.406 21.32H343.486V51.2H381.826V71.9H343.486V103.76H390.466V125H313.966V0.259997H390.466ZM47.74 257.3H36.22V305H6.7V180.26H47.56C64.6 180.26 77.38 183.38 85.9 189.62C94.54 195.86 98.86 205.4 98.86 218.24C98.86 226.28 96.94 233 93.1 238.4C89.26 243.68 83.2 248.18 74.92 251.9L106.6 305H73.3L47.74 257.3ZM36.22 236.96H48.64C55.24 236.96 60.16 235.46 63.4 232.46C66.76 229.46 68.44 224.72 68.44 218.24C68.44 212.24 66.64 207.86 63.04 205.1C59.56 202.34 54.16 200.96 46.84 200.96H36.22V236.96ZM147.314 180.26V305H117.794V180.26H147.314ZM247.028 180.26L243.968 201.32H200.048V231.2H238.388V251.9H200.048V283.76H247.028V305H170.528V180.26H247.028ZM185.108 169.1L174.848 157.4L200.408 134.18H217.688L243.068 157.4L232.988 169.1L209.048 153.98L185.108 169.1ZM361.394 305H323.774L287.774 208.34C288.974 217.82 289.874 226.22 290.474 233.54C291.194 240.74 291.554 249.32 291.554 259.28V305H265.274V180.26H301.994L338.894 277.1C336.254 260.66 334.934 245.18 334.934 230.66V180.26H361.394V305ZM57.64 357.2C65.44 357.2 72.34 358.34 78.34 360.62C84.46 362.9 90.22 366.32 95.62 370.88L81.58 387.62C77.86 384.74 74.2 382.58 70.6 381.14C67 379.7 63.16 378.98 59.08 378.98C50.68 378.98 44.02 382.52 39.1 389.6C34.3 396.68 31.9 407.6 31.9 422.36C31.9 436.88 34.3 447.68 39.1 454.76C44.02 461.72 50.8 465.2 59.44 465.2C64 465.2 68.14 464.36 71.86 462.68C75.58 460.88 79.6 458.36 83.92 455.12L97.06 472.04C92.38 476.72 86.68 480.56 79.96 483.56C73.36 486.56 66.04 488.06 58 488.06C46.48 488.06 36.46 485.54 27.94 480.5C19.42 475.46 12.76 468.02 7.96 458.18C3.28 448.22 0.94 436.28 0.94 422.36C0.94 408.8 3.34 397.1 8.14 387.26C13.06 377.42 19.78 369.98 28.3 364.94C36.94 359.78 46.72 357.2 57.64 357.2ZM139.755 360.26V485H110.235V360.26H139.755ZM228.67 485L222.19 458.18H185.83L179.53 485H148.93L186.55 360.26H222.37L259.99 485H228.67ZM190.87 436.76H217.15L204.01 381.68L190.87 436.76Z" fill="#0B0C12"/>
</svg>
