<svg width="100" height="100" viewBox="0 0 100 100" fill="none" xmlns="http://www.w3.org/2000/svg">
<path d="M70.4883 37.5C73.1895 35.77 75.2577 33.2116 76.3831 30.2078C77.5085 27.204 77.6306 23.9165 76.731 20.8375C75.8315 17.7585 73.9588 15.0537 71.3934 13.1282C68.8279 11.2026 65.7077 10.16 62.5 10.1562H34.375C31.1673 10.16 28.0471 11.2026 25.4816 13.1282C22.9162 15.0537 21.0435 17.7585 20.144 20.8375C19.2444 23.9165 19.3665 27.204 20.4919 30.2078C21.6173 33.2116 23.6855 35.77 26.3867 37.5C24.2421 38.873 22.4868 40.7746 21.2895 43.022C20.0922 45.2695 19.4932 47.7871 19.55 50.3329C19.6069 52.8787 20.3178 55.3671 21.6143 57.5588C22.9108 59.7505 24.7493 61.5718 26.9531 62.8477C24.5755 64.4037 22.6428 66.5507 21.3443 69.0782C20.0459 71.6058 19.4261 74.4272 19.5458 77.2662C19.6655 80.1053 20.5205 82.8646 22.0271 85.2738C23.5337 87.6831 25.6402 89.6598 28.1404 91.0102C30.6405 92.3607 33.4485 93.0387 36.2894 92.9777C39.1304 92.9167 41.9067 92.119 44.3466 90.6625C46.7865 89.206 48.8063 87.1408 50.2082 84.6692C51.6101 82.1975 52.346 79.4041 52.3437 76.5625V60.8125C53.8457 62.2418 55.6304 63.3406 57.5829 64.0381C59.5354 64.7356 61.6123 65.0163 63.6799 64.8622C65.7475 64.7081 67.7599 64.1225 69.5874 63.1433C71.4149 62.164 73.017 60.8128 74.2904 59.1766C75.5639 57.5405 76.4805 55.6557 76.9811 53.6437C77.4817 51.6317 77.5553 49.5372 77.1971 47.495C76.8389 45.4529 76.0569 43.5084 74.9014 41.7869C73.7459 40.0654 72.2426 38.6051 70.4883 37.5ZM72.6562 25C72.6562 27.6936 71.5862 30.2769 69.6816 32.1816C67.7769 34.0862 65.1936 35.1562 62.5 35.1562H52.3437V14.8438H62.5C65.1936 14.8438 67.7769 15.9138 69.6816 17.8184C71.5862 19.7231 72.6562 22.3064 72.6562 25ZM24.2187 25C24.2187 22.3064 25.2888 19.7231 27.1934 17.8184C29.0981 15.9138 31.6814 14.8438 34.375 14.8438H47.6562V35.1562H34.375C31.6814 35.1562 29.0981 34.0862 27.1934 32.1816C25.2888 30.2769 24.2187 27.6936 24.2187 25ZM34.375 60.1562C31.6814 60.1562 29.0981 59.0862 27.1934 57.1816C25.2888 55.2769 24.2187 52.6936 24.2187 50C24.2187 47.3064 25.2888 44.7231 27.1934 42.8184C29.0981 40.9138 31.6814 39.8438 34.375 39.8438H47.6562V60.1562H34.375ZM47.6562 76.5625C47.6562 78.8802 46.969 81.146 45.6813 83.0731C44.3936 85.0002 42.5634 86.5023 40.4221 87.3892C38.2807 88.2762 35.9245 88.5082 33.6513 88.0561C31.3781 87.6039 29.29 86.4878 27.6511 84.8489C26.0122 83.21 24.8961 81.1219 24.4439 78.8487C23.9917 76.5755 24.2238 74.2193 25.1108 72.0779C25.9977 69.9366 27.4998 68.1064 29.4269 66.8187C31.354 65.531 33.6197 64.8438 35.9375 64.8438H47.6562V76.5625ZM62.5 60.1562C60.4913 60.1562 58.5277 59.5606 56.8575 58.4446C55.1873 57.3286 53.8855 55.7424 53.1168 53.8866C52.3481 52.0308 52.147 49.9887 52.5389 48.0186C52.9308 46.0485 53.8981 44.2388 55.3184 42.8184C56.7388 41.3981 58.5485 40.4308 60.5186 40.0389C62.4887 39.647 64.5308 39.8481 66.3866 40.6168C68.2424 41.3856 69.8286 42.6873 70.9446 44.3575C72.0606 46.0277 72.6562 47.9913 72.6562 50C72.6562 52.6936 71.5862 55.2769 69.6816 57.1816C67.7769 59.0862 65.1936 60.1562 62.5 60.1562Z" fill="url(#paint0_linear_1603_20)"/>
<defs>
<linearGradient id="paint0_linear_1603_20" x1="48.4758" y1="10.1562" x2="48.4758" y2="92.9815" gradientUnits="userSpaceOnUse">
<stop stop-color="#7ECEFC"/>
<stop offset="1" stop-color="#547EEC"/>
</linearGradient>
</defs>
</svg>
