<svg width="459" height="356" viewBox="0 0 459 356" fill="none" xmlns="http://www.w3.org/2000/svg">
<path d="M14.7 128V3.26H89.04L85.98 24.32H44.22V57.44H80.58V78.5H44.22V128H14.7ZM149.475 0.199993C167.235 0.199993 181.035 5.89999 190.875 17.3C200.835 28.7 205.815 44.78 205.815 65.54C205.815 79.1 203.535 90.8 198.975 100.64C194.535 110.48 188.055 118.04 179.535 123.32C171.135 128.48 161.115 131.06 149.475 131.06C137.835 131.06 127.815 128.48 119.415 123.32C111.015 118.16 104.535 110.72 99.975 101C95.535 91.16 93.315 79.34 93.315 65.54C93.315 52.1 95.535 40.46 99.975 30.62C104.535 20.78 111.015 13.28 119.415 8.12C127.815 2.83999 137.835 0.199993 149.475 0.199993ZM149.475 21.8C140.955 21.8 134.595 25.28 130.395 32.24C126.315 39.08 124.275 50.18 124.275 65.54C124.275 80.9 126.375 92.06 130.575 99.02C134.775 105.98 141.075 109.46 149.475 109.46C158.115 109.46 164.475 106.04 168.555 99.2C172.755 92.24 174.855 81.02 174.855 65.54C174.855 50.06 172.755 38.9 168.555 32.06C164.355 25.22 157.995 21.8 149.475 21.8ZM264.568 80.3H253.048V128H223.528V3.26H264.388C281.428 3.26 294.208 6.38 302.728 12.62C311.368 18.86 315.688 28.4 315.688 41.24C315.688 49.28 313.768 56 309.928 61.4C306.088 66.68 300.028 71.18 291.748 74.9L323.428 128H290.128L264.568 80.3ZM253.048 59.96H265.468C272.068 59.96 276.988 58.46 280.228 55.46C283.588 52.46 285.268 47.72 285.268 41.24C285.268 35.24 283.468 30.86 279.868 28.1C276.388 25.34 270.988 23.96 263.668 23.96H253.048V59.96ZM458.462 128H429.482L427.322 79.22C426.722 67.58 426.422 57.2 426.422 48.08C426.422 41.12 426.602 34.52 426.962 28.28L407.702 114.86H379.802L359.282 28.28C360.002 38.72 360.362 48.56 360.362 57.8C360.362 64.76 360.182 72.02 359.822 79.58L357.662 128H328.862L338.222 3.26H375.482L394.202 87.86L411.662 3.26H449.102L458.462 128ZM80.4 308L73.92 281.18H37.56L31.26 308H0.66L38.28 183.26H74.1L111.72 308H80.4ZM42.6 259.76H68.88L55.74 204.68L42.6 259.76ZM176.354 316.64C182.714 317.36 187.394 319.22 190.394 322.22C193.514 325.34 195.074 329.42 195.074 334.46C195.074 340.58 192.614 345.56 187.694 349.4C182.894 353.24 176.414 355.16 168.254 355.16C164.174 355.16 160.394 354.62 156.914 353.54C153.434 352.58 150.494 351.32 148.094 349.76L154.574 336.62C158.654 338.66 162.494 339.68 166.094 339.68C171.734 339.68 174.554 337.88 174.554 334.28C174.554 332.12 173.234 330.56 170.594 329.6C167.954 328.64 163.754 328.16 157.994 328.16L160.154 310.34C145.634 308.18 134.174 301.52 125.774 290.36C117.494 279.08 113.354 264.08 113.354 245.36C113.354 231.8 115.754 220.1 120.554 210.26C125.474 200.42 132.194 192.98 140.714 187.94C149.354 182.78 159.134 180.2 170.054 180.2C177.854 180.2 184.754 181.34 190.754 183.62C196.874 185.9 202.634 189.32 208.034 193.88L193.994 210.62C190.274 207.74 186.614 205.58 183.014 204.14C179.414 202.7 175.574 201.98 171.494 201.98C163.094 201.98 156.434 205.52 151.514 212.6C146.714 219.68 144.314 230.6 144.314 245.36C144.314 259.88 146.714 270.68 151.514 277.76C156.434 284.72 163.214 288.2 171.854 288.2C176.414 288.2 180.554 287.36 184.274 285.68C187.994 283.88 192.014 281.36 196.334 278.12L209.474 295.04C205.394 299.12 200.534 302.6 194.894 305.48C189.254 308.24 183.074 309.98 176.354 310.7V316.64ZM288.349 308L281.869 281.18H245.509L239.209 308H208.609L246.229 183.26H282.049L319.669 308H288.349ZM250.549 259.76H276.829L263.689 204.68L250.549 259.76ZM274.669 171.02C272.029 171.02 269.749 170.6 267.829 169.76C265.909 168.92 263.809 167.72 261.529 166.16C258.529 164 256.069 162.92 254.149 162.92C252.109 162.92 250.369 163.58 248.929 164.9C247.609 166.1 246.169 168.08 244.609 170.84L230.389 164C232.789 157.76 235.969 152.66 239.929 148.7C244.009 144.74 248.569 142.76 253.609 142.76C256.369 142.76 258.709 143.24 260.629 144.2C262.669 145.04 264.889 146.24 267.289 147.8C268.969 148.88 270.289 149.66 271.249 150.14C272.329 150.62 273.409 150.86 274.489 150.86C276.409 150.86 278.029 150.26 279.349 149.06C280.789 147.74 282.289 145.7 283.849 142.94L298.069 149.96C295.549 156.32 292.249 161.42 288.169 165.26C284.209 169.1 279.709 171.02 274.669 171.02ZM377.463 180.2C395.223 180.2 409.023 185.9 418.863 197.3C428.823 208.7 433.803 224.78 433.803 245.54C433.803 259.1 431.523 270.8 426.963 280.64C422.523 290.48 416.043 298.04 407.523 303.32C399.123 308.48 389.103 311.06 377.463 311.06C365.823 311.06 355.803 308.48 347.403 303.32C339.003 298.16 332.523 290.72 327.963 281C323.523 271.16 321.303 259.34 321.303 245.54C321.303 232.1 323.523 220.46 327.963 210.62C332.523 200.78 339.003 193.28 347.403 188.12C355.803 182.84 365.823 180.2 377.463 180.2ZM377.463 201.8C368.943 201.8 362.583 205.28 358.383 212.24C354.303 219.08 352.263 230.18 352.263 245.54C352.263 260.9 354.363 272.06 358.563 279.02C362.763 285.98 369.063 289.46 377.463 289.46C386.103 289.46 392.463 286.04 396.543 279.2C400.743 272.24 402.843 261.02 402.843 245.54C402.843 230.06 400.743 218.9 396.543 212.06C392.343 205.22 385.983 201.8 377.463 201.8Z" fill="black"/>
</svg>
