<svg xmlns="http://www.w3.org/2000/svg" width="33" height="33" fill="none" viewBox="0 0 33 33"><path fill="#0A0081" d="M16.5 3.3C9.21029 3.3 3.29999 9.2103 3.29999 16.5C3.29999 22.6853 7.55919 27.8608 13.3012 29.293C13.2396 29.1148 13.2 28.908 13.2 28.6517V26.3956C12.6643 26.3956 11.7667 26.3956 11.5412 26.3956C10.6381 26.3956 9.83509 26.0073 9.44569 25.2857C9.01339 24.4838 8.93859 23.2573 7.86719 22.5071C7.54929 22.2574 7.79129 21.9725 8.15759 22.011C8.83409 22.2024 9.39509 22.6666 9.92309 23.3552C10.4489 24.0449 10.6964 24.2011 11.6787 24.2011C12.155 24.2011 12.8678 24.1736 13.5388 24.068C13.8996 23.1517 14.5233 22.308 15.2856 21.9098C10.89 21.4577 8.79229 19.2709 8.79229 16.302C8.79229 15.0238 9.33679 13.7874 10.2619 12.7457C9.95829 11.7117 9.57659 9.603 10.3785 8.8C12.3563 8.8 13.552 10.0826 13.8391 10.4291C14.8247 10.0914 15.9071 9.9 17.0445 9.9C18.1841 9.9 19.2709 10.0914 20.2587 10.4313C20.5425 10.087 21.7393 8.8 23.7215 8.8C24.5267 9.6041 24.1406 11.7216 23.8337 12.7534C24.7533 13.7929 25.2945 15.026 25.2945 16.302C25.2945 19.2687 23.2001 21.4544 18.8111 21.9087C20.0189 22.539 20.9 24.31 20.9 25.6443V28.6517C20.9 28.7661 20.8747 28.8486 20.8615 28.9465C26.0051 27.1436 29.7 22.2596 29.7 16.5C29.7 9.2103 23.7897 3.3 16.5 3.3Z"/></svg>