<svg width="89" height="88" viewBox="0 0 89 88" fill="none" xmlns="http://www.w3.org/2000/svg">
<rect x="0.636719" y="0.102295" width="87.6364" height="87.6364" rx="21.9091" fill="url(#paint0_linear_2301_1854)"/>
<path d="M40.9567 14.3364C26.8472 15.87 15.4983 27.2189 13.9647 41.0217C12.431 55.4378 20.7127 68.3204 33.2885 73.228C34.2087 73.5347 35.1289 72.9213 35.1289 71.6944V69.5698C35.1289 68.1562 33.782 67.0935 32.3683 67.0935V67.0935C28.0741 67.0935 26.2338 63.4127 25.927 61.2657C25.7403 60.5186 25.4398 59.8853 25.0256 59.2965C24.4784 58.5184 22.8598 58.5362 22.8598 57.5849V57.5849C22.8598 56.9715 23.7799 56.9715 24.0867 56.9715C25.927 56.9715 27.4607 59.1186 28.0741 60.0387C29.6078 62.4926 31.4481 63.106 32.3683 63.106C33.0013 63.106 33.5526 63.0244 34.0223 62.9032C34.7395 62.7182 35.1757 62.0449 35.3588 61.3272V61.3272C35.8513 59.3961 34.9543 56.1496 33.1575 55.2874C28.7963 53.1946 25.927 49.708 25.927 44.7024C25.927 42.7944 26.4175 40.8864 27.2319 39.1448C28.3502 36.7536 28.9943 33.8462 28.9943 31.2064V31.2064C28.9943 31.1179 28.9943 31.0262 28.9947 30.9315C29.0053 28.0093 29.7447 25.9279 32.5402 26.7793V26.7793C35.3936 27.6483 40.3041 29.5303 43.2836 29.3905C43.6308 29.3742 43.9808 29.366 44.3307 29.366C44.9192 29.366 45.5077 29.3891 46.0899 29.4352C48.8197 29.6513 51.6221 28.9044 54.0675 27.6721C54.1399 27.6356 54.212 27.6001 54.2837 27.5655C56.9568 26.2769 59.667 28.2389 59.667 31.2064V31.2064V31.2064C59.667 33.8488 60.3344 36.7382 61.4672 39.1255C62.259 40.7943 62.7343 42.6533 62.7343 44.7024C62.7343 48.7852 60.8255 51.8574 57.7551 53.987C55.1063 55.8243 53.5325 60.8025 53.5325 64.0262V64.0262V72.0011C53.5325 72.9213 54.4527 73.8415 55.6796 73.5347C67.0285 68.9338 75.0034 57.8917 75.0034 45.0091C75.0034 26.6055 59.3603 12.1893 40.9567 14.3364Z" fill="#F5F7FA"/>
<defs>
<linearGradient id="paint0_linear_2301_1854" x1="44.4549" y1="0.102295" x2="44.4549" y2="87.7387" gradientUnits="userSpaceOnUse">
<stop stop-color="#7ECEFC"/>
<stop offset="1" stop-color="#547EEC"/>
</linearGradient>
</defs>
</svg>
