<svg width="32" height="32" viewBox="0 0 32 32" fill="none" xmlns="http://www.w3.org/2000/svg">
<path d="M14.7227 5.19764C9.57067 5.75764 5.42667 9.90164 4.86667 14.9416C4.30667 20.2056 7.33067 24.9096 11.9227 26.7016C12.2587 26.8136 12.5947 26.5896 12.5947 26.1416V24.3496C12.5947 24.3496 12.1467 24.4616 11.5867 24.4616C10.0187 24.4616 9.34667 23.1176 9.23467 22.3336C9.12267 21.8856 8.89867 21.5496 8.56267 21.2136C8.22667 21.1016 8.11467 21.1016 8.11467 20.9896C8.11467 20.7656 8.45067 20.7656 8.56267 20.7656C9.23467 20.7656 9.79467 21.5496 10.0187 21.8856C10.5787 22.7816 11.2507 23.0056 11.5867 23.0056C12.0347 23.0056 12.3707 22.8936 12.5947 22.7816C12.7067 21.9976 13.0427 21.2136 13.7147 20.7656C11.1387 20.2056 9.23467 18.7496 9.23467 16.2856C9.23467 15.0536 9.79467 13.8216 10.5787 12.9256C10.4667 12.7016 10.3547 12.1416 10.3547 11.3576C10.3547 10.9096 10.3547 10.2376 10.6907 9.56564C10.6907 9.56564 12.2587 9.56564 13.8267 11.0216C14.3867 10.7976 15.1707 10.6856 15.9547 10.6856C16.7387 10.6856 17.5227 10.7976 18.1947 11.0216C19.6507 9.56564 21.3307 9.56564 21.3307 9.56564C21.5547 10.2376 21.5547 10.9096 21.5547 11.3576C21.5547 12.2536 21.4427 12.7016 21.3307 12.9256C22.1147 13.8216 22.6747 14.9416 22.6747 16.2856C22.6747 18.7496 20.7707 20.2056 18.1947 20.7656C18.8667 21.3256 19.3147 22.3336 19.3147 23.3416V26.2536C19.3147 26.5896 19.6507 26.9256 20.0987 26.8136C24.2427 25.1336 27.1547 21.1016 27.1547 16.3976C27.1547 9.67764 21.4427 4.41364 14.7227 5.19764Z" fill="url(#paint0_linear_1629_113)"/>
<defs>
<linearGradient id="paint0_linear_1629_113" x1="15.9774" y1="5.12012" x2="15.9774" y2="26.8356" gradientUnits="userSpaceOnUse">
<stop stop-color="#7ECEFC"/>
<stop offset="1" stop-color="#547EEC"/>
</linearGradient>
</defs>
</svg>
