<svg width="40" height="40" viewBox="0 0 40 40" fill="none" xmlns="http://www.w3.org/2000/svg">
<rect width="40" height="40" rx="5" fill="url(#paint0_linear_1418_419)"/>
<path d="M18.4033 6.49696C11.9633 7.19696 6.78327 12.377 6.08327 18.677C5.38327 25.257 9.16327 31.137 14.9033 33.377C15.3233 33.517 15.7433 33.237 15.7433 32.677V31.7073C15.7433 31.062 15.1285 30.577 14.4833 30.577V30.577C12.5233 30.577 11.6833 28.897 11.5433 27.917C11.458 27.576 11.3209 27.2869 11.1319 27.0182C10.8821 26.663 10.1433 26.6712 10.1433 26.237V26.237C10.1433 25.957 10.5633 25.957 10.7033 25.957C11.5433 25.957 12.2433 26.937 12.5233 27.357C13.2233 28.477 14.0633 28.757 14.4833 28.757C14.7722 28.757 15.0238 28.7197 15.2382 28.6644C15.5656 28.58 15.7647 28.2726 15.8482 27.9451V27.9451C16.073 27.0636 15.6636 25.5818 14.8435 25.1883C12.8529 24.2331 11.5433 22.6417 11.5433 20.357C11.5433 19.4861 11.7671 18.6152 12.1389 17.8203C12.6493 16.7289 12.9433 15.4018 12.9433 14.197V14.197C12.9433 14.1566 12.9433 14.1147 12.9434 14.0715C12.9483 12.7377 13.2858 11.7877 14.5617 12.1763V12.1763C15.8641 12.573 18.1054 13.4319 19.4653 13.3681C19.6238 13.3607 19.7836 13.357 19.9433 13.357C20.2119 13.357 20.4805 13.3675 20.7462 13.3885C21.9922 13.4871 23.2713 13.1463 24.3875 12.5838C24.4205 12.5672 24.4534 12.5509 24.4862 12.5352C25.7062 11.947 26.9433 12.8425 26.9433 14.197V14.197V14.197C26.9433 15.403 27.2479 16.7219 27.7649 17.8115C28.1263 18.5732 28.3433 19.4217 28.3433 20.357C28.3433 22.2205 27.472 23.6227 26.0706 24.5948C24.8616 25.4333 24.1433 27.7056 24.1433 29.177V29.177V32.817C24.1433 33.237 24.5633 33.657 25.1233 33.517C30.3033 31.417 33.9433 26.377 33.9433 20.497C33.9433 12.097 26.8033 5.51696 18.4033 6.49696Z" fill="#F5F7FA"/>
<defs>
<linearGradient id="paint0_linear_1418_419" x1="20" y1="0" x2="20" y2="40" gradientUnits="userSpaceOnUse">
<stop stop-color="#7ECEFC"/>
<stop offset="1" stop-color="#547EEC"/>
</linearGradient>
</defs>
</svg>
