<svg width="22" height="21" viewBox="0 0 22 21" fill="none" xmlns="http://www.w3.org/2000/svg">
<path d="M12.7219 20.0833C12.3546 20.0833 12.087 19.9635 11.9193 19.7239C11.7516 19.4843 11.7316 19.1888 11.8594 18.8375L15.3813 9.49371C15.4771 9.23815 15.6528 9.02253 15.9084 8.84683C16.1639 8.67114 16.4275 8.58329 16.699 8.58329C16.9705 8.58329 17.2381 8.67114 17.5016 8.84683C17.7651 9.02253 17.9448 9.23815 18.0407 9.49371L21.6344 18.7416C21.7782 19.109 21.7622 19.4244 21.5865 19.688C21.4108 19.9515 21.1153 20.0833 20.7 20.0833C20.5243 20.0833 20.3566 20.0274 20.1969 19.9156C20.0372 19.8038 19.9254 19.66 19.8615 19.4843L19.0709 17.0645H14.4709L13.5605 19.5083C13.4966 19.668 13.3848 19.8038 13.225 19.9156C13.0653 20.0274 12.8976 20.0833 12.7219 20.0833ZM14.998 15.3875H18.4L16.723 10.7395H16.675L14.998 15.3875ZM6.924 7.19371C7.16358 7.60899 7.42712 8.01229 7.71462 8.4036C8.00212 8.79492 8.31358 9.19822 8.649 9.6135C9.36775 8.86281 9.96671 8.08416 10.4459 7.27756C10.925 6.47097 11.3323 5.62843 11.6677 4.74996H1.91671C1.64518 4.74996 1.41758 4.65812 1.23389 4.47444C1.05021 4.29076 0.958374 4.06315 0.958374 3.79163C0.958374 3.5201 1.05021 3.29249 1.23389 3.10881C1.41758 2.92513 1.64518 2.83329 1.91671 2.83329H7.66671V1.87496C7.66671 1.60343 7.75855 1.37583 7.94223 1.19215C8.12591 1.00847 8.35351 0.916626 8.62504 0.916626C8.89657 0.916626 9.12417 1.00847 9.30785 1.19215C9.49153 1.37583 9.58337 1.60343 9.58337 1.87496V2.83329H15.3334C15.6049 2.83329 15.8325 2.92513 16.0162 3.10881C16.1999 3.29249 16.2917 3.5201 16.2917 3.79163C16.2917 4.06315 16.1999 4.29076 16.0162 4.47444C15.8325 4.65812 15.6049 4.74996 15.3334 4.74996H13.5844C13.233 5.85204 12.7658 6.93416 12.1829 7.99631C11.5999 9.05847 10.8851 10.0687 10.0386 11.027L12.3865 13.3989L11.6677 15.3395L8.62504 12.4166L4.48025 16.5614C4.30455 16.7371 4.08893 16.825 3.83337 16.825C3.57782 16.825 3.36219 16.7291 3.1865 16.5375C2.99483 16.3618 2.899 16.1461 2.899 15.8906C2.899 15.635 2.99483 15.4114 3.1865 15.2198L7.40317 11.0031C6.98789 10.5079 6.59657 10.0088 6.22921 9.50569C5.86185 9.00256 5.52643 8.48746 5.22296 7.96038C5.03129 7.60899 5.01532 7.30551 5.17504 7.04996C5.33476 6.7944 5.62226 6.66663 6.03754 6.66663C6.21324 6.66663 6.38494 6.71854 6.55265 6.82235C6.72035 6.92617 6.84414 7.04996 6.924 7.19371Z" fill="url(#paint0_linear_775_244)"/>
<defs>
<linearGradient id="paint0_linear_775_244" x1="11.3449" y1="0.916626" x2="11.3449" y2="20.0833" gradientUnits="userSpaceOnUse">
<stop stop-color="#7ECEFC"/>
<stop offset="1" stop-color="#547EEC"/>
</linearGradient>
</defs>
</svg>
