<svg xmlns="http://www.w3.org/2000/svg" width="88" height="88" fill="none" viewBox="0 0 88 88"><g clip-path="url(#clip0_2301_1860)"><rect width="83.254" height="83.254" x="2.464" y="2.293" fill="#F5F7FA" rx="27.386"/><path fill="url(#paint0_linear_2301_1860)" d="M24.6169 0.102295C11.1744 0.102295 0.273438 11.0033 0.273438 24.4457V63.3952C0.273438 76.8377 11.1744 87.7387 24.6169 87.7387H63.5664C77.0088 87.7387 87.9098 76.8377 87.9098 63.3952V24.4457C87.9098 11.0033 77.0088 0.102295 63.5664 0.102295H24.6169ZM73.3037 9.83967C75.9913 9.83967 78.1724 12.0208 78.1724 14.7084C78.1724 17.3959 75.9913 19.577 73.3037 19.577C70.6162 19.577 68.4351 17.3959 68.4351 14.7084C68.4351 12.0208 70.6162 9.83967 73.3037 9.83967ZM44.0916 19.577C57.5341 19.577 68.4351 30.478 68.4351 43.9205C68.4351 57.3629 57.5341 68.2639 44.0916 68.2639C30.6492 68.2639 19.7482 57.3629 19.7482 43.9205C19.7482 30.478 30.6492 19.577 44.0916 19.577ZM44.0916 29.3144C40.2178 29.3144 36.5027 30.8533 33.7636 33.5924C31.0244 36.3316 29.4856 40.0467 29.4856 43.9205C29.4856 47.7942 31.0244 51.5094 33.7636 54.2485C36.5027 56.9877 40.2178 58.5265 44.0916 58.5265C47.9654 58.5265 51.6805 56.9877 54.4197 54.2485C57.1588 51.5094 58.6977 47.7942 58.6977 43.9205C58.6977 40.0467 57.1588 36.3316 54.4197 33.5924C51.6805 30.8533 47.9654 29.3144 44.0916 29.3144Z"/></g><defs><linearGradient id="paint0_linear_2301_1860" x1="44.092" x2="44.092" y1=".102" y2="87.739" gradientUnits="userSpaceOnUse"><stop stop-color="#7ECEFC"/><stop offset="1" stop-color="#547EEC"/></linearGradient><clipPath id="clip0_2301_1860"><rect width="87.636" height="87.636" x=".273" y=".102" fill="#fff" rx="21.909"/></clipPath></defs></svg>