<svg xmlns="http://www.w3.org/2000/svg" width="40" height="40" fill="none" viewBox="0 0 40 40"><g clip-path="url(#clip0_1418_425)"><rect width="38" height="38" x="1" y="1" fill="#F5F7FA" rx="10"/><path fill="url(#paint0_linear_1418_425)" d="M11.1111 0C4.97556 0 0 4.97556 0 11.1111V28.8889C0 35.0244 4.97556 40 11.1111 40H28.8889C35.0244 40 40 35.0244 40 28.8889V11.1111C40 4.97556 35.0244 0 28.8889 0H11.1111ZM33.3333 4.44444C34.56 4.44444 35.5556 5.44 35.5556 6.66667C35.5556 7.89333 34.56 8.88889 33.3333 8.88889C32.1067 8.88889 31.1111 7.89333 31.1111 6.66667C31.1111 5.44 32.1067 4.44444 33.3333 4.44444ZM20 8.88889C26.1356 8.88889 31.1111 13.8644 31.1111 20C31.1111 26.1356 26.1356 31.1111 20 31.1111C13.8644 31.1111 8.88889 26.1356 8.88889 20C8.88889 13.8644 13.8644 8.88889 20 8.88889ZM20 13.3333C18.2319 13.3333 16.5362 14.0357 15.286 15.286C14.0357 16.5362 13.3333 18.2319 13.3333 20C13.3333 21.7681 14.0357 23.4638 15.286 24.714C16.5362 25.9643 18.2319 26.6667 20 26.6667C21.7681 26.6667 23.4638 25.9643 24.714 24.714C25.9643 23.4638 26.6667 21.7681 26.6667 20C26.6667 18.2319 25.9643 16.5362 24.714 15.286C23.4638 14.0357 21.7681 13.3333 20 13.3333Z"/></g><defs><linearGradient id="paint0_linear_1418_425" x1="20" x2="20" y1="0" y2="40" gradientUnits="userSpaceOnUse"><stop stop-color="#7ECEFC"/><stop offset="1" stop-color="#547EEC"/></linearGradient><clipPath id="clip0_1418_425"><rect width="40" height="40" fill="#fff" rx="5"/></clipPath></defs></svg>