<svg xmlns="http://www.w3.org/2000/svg" width="40" height="40" fill="none" viewBox="0 0 40 40"><rect width="40" height="40" fill="url(#paint0_linear_1418_422)" rx="5"/><path fill="#F5F7FA" d="M12.6574 29.5913C12.6574 31.1425 11.3999 32.4 9.84873 32.4V32.4C8.29754 32.4 7.04004 31.1425 7.04004 29.5913V18.3541C7.04004 16.8029 8.29754 15.5454 9.84873 15.5454V15.5454C11.3999 15.5454 12.6574 16.8029 12.6574 18.3541V29.5913ZM9.84986 13.2982C8.29609 13.2982 7.04004 12.0386 7.04004 10.4879C7.04004 8.93733 8.29833 7.67998 9.84986 7.67998C11.398 7.67998 12.6574 8.93957 12.6574 10.4879C12.6574 12.0386 11.398 13.2982 9.84986 13.2982ZM32.88 29.6997C32.88 31.191 31.6711 32.4 30.1798 32.4V32.4C28.6884 32.4 27.4795 31.191 27.4795 29.6997V24.1974C27.4795 22.2412 27.4424 19.7254 24.6719 19.7254C21.8598 19.7254 21.4273 21.8558 21.4273 24.0559V29.7003C21.4273 31.1913 20.2186 32.4 18.7276 32.4V32.4C17.2366 32.4 16.0279 31.1913 16.0279 29.7003V18.1249C16.0279 16.6935 17.1883 15.5331 18.6197 15.5331H20.0593C20.6957 15.5331 21.2116 16.049 21.2116 16.6854V17.7918C21.2116 17.8171 21.2321 17.8377 21.2574 17.8377V17.8377C21.2742 17.8377 21.2895 17.8287 21.2976 17.814C22.0269 16.4952 23.7843 15.114 26.3976 15.114C31.8689 15.114 32.88 18.6073 32.88 23.1491V29.6997Z"/><defs><linearGradient id="paint0_linear_1418_422" x1="20" x2="20" y1="0" y2="40" gradientUnits="userSpaceOnUse"><stop stop-color="#7ECEFC"/><stop offset="1" stop-color="#547EEC"/></linearGradient></defs></svg>