<svg xmlns="http://www.w3.org/2000/svg" width="33" height="33" fill="none" viewBox="0 0 33 33"><path fill="#0A0081" d="M26.4 4.39999H6.60002C5.38452 4.39999 4.40002 5.38449 4.40002 6.59999V26.4C4.40002 27.6155 5.38452 28.6 6.60002 28.6H26.4C27.6155 28.6 28.6 27.6155 28.6 26.4V6.59999C28.6 5.38449 27.6155 4.39999 26.4 4.39999ZM12.0494 24.2H8.80442V13.7588H12.0494V24.2ZM10.3939 12.2661C9.34783 12.2661 8.50192 11.418 8.50192 10.3741C8.50192 9.33019 9.34893 8.48319 10.3939 8.48319C11.4367 8.48319 12.2848 9.33129 12.2848 10.3741C12.2848 11.418 11.4367 12.2661 10.3939 12.2661ZM24.2044 24.2H20.9616V19.1224C20.9616 17.9113 20.9396 16.3537 19.2753 16.3537C17.5868 16.3537 17.3272 17.6726 17.3272 19.0344V24.2H14.0844V13.7588H17.1974V15.1855H17.2414C17.6748 14.3649 18.733 13.4992 20.3115 13.4992C23.5972 13.4992 24.2044 15.6618 24.2044 18.4734V24.2Z"/></svg>