<svg width="32" height="32" viewBox="0 0 32 32" fill="none" xmlns="http://www.w3.org/2000/svg">
<path d="M25.3333 4H6.66667C5.19333 4 4 5.19333 4 6.66667V25.3333C4 26.8067 5.19333 28 6.66667 28H25.3333C26.8067 28 28 26.8067 28 25.3333V6.66667C28 5.19333 26.8067 4 25.3333 4ZM12 22.6667H8.636V13.3333H12V22.6667ZM10.2587 11.6227C9.23067 11.6227 8.544 10.9373 8.544 10.0227C8.544 9.108 9.22933 8.42267 10.372 8.42267C11.4 8.42267 12.0867 9.108 12.0867 10.0227C12.0867 10.9373 11.4013 11.6227 10.2587 11.6227ZM24 22.6667H20.744V17.5653C20.744 16.1547 19.876 15.8293 19.5507 15.8293C19.2253 15.8293 18.14 16.0467 18.14 17.5653C18.14 17.7827 18.14 22.6667 18.14 22.6667H14.776V13.3333H18.14V14.636C18.5733 13.876 19.4413 13.3333 21.0693 13.3333C22.6973 13.3333 24 14.636 24 17.5653V22.6667Z" fill="url(#paint0_linear_832_172)"/>
<defs>
<linearGradient id="paint0_linear_832_172" x1="16" y1="4" x2="16" y2="28" gradientUnits="userSpaceOnUse">
<stop stop-color="#7ECEFC"/>
<stop offset="1" stop-color="#547EEC"/>
</linearGradient>
</defs>
</svg>
