<svg width="88" height="88" viewBox="0 0 88 88" fill="none" xmlns="http://www.w3.org/2000/svg">
<rect y="0.102295" width="87.6364" height="87.6364" rx="21.9091" fill="url(#paint0_linear_2301_1857)"/>
<path d="M27.732 64.9341C27.732 68.3327 24.9769 71.0877 21.5784 71.0877V71.0877C18.1799 71.0877 15.4248 68.3327 15.4248 64.9341V40.3146C15.4248 36.916 18.1799 34.161 21.5784 34.161V34.161C24.9769 34.161 27.732 36.916 27.732 40.3146V64.9341ZM21.5809 29.2374C18.1767 29.2374 15.4248 26.4777 15.4248 23.0805C15.4248 19.6832 18.1816 16.9285 21.5809 16.9285C24.9727 16.9285 27.732 19.6881 27.732 23.0805C27.732 26.4777 24.9727 29.2374 21.5809 29.2374ZM72.0379 65.1717C72.0379 68.439 69.3892 71.0877 66.1218 71.0877V71.0877C62.8545 71.0877 60.2058 68.439 60.2058 65.1717V53.1167C60.2058 48.8307 60.1245 43.3188 54.0546 43.3188C47.8936 43.3188 46.946 47.9863 46.946 52.8065V65.1729C46.946 68.4396 44.2978 71.0877 41.0312 71.0877V71.0877C37.7645 71.0877 35.1163 68.4396 35.1163 65.1729V39.8124C35.1163 36.6763 37.6587 34.1339 40.7949 34.1339H43.9488C45.3431 34.1339 46.4734 35.2642 46.4734 36.6584V39.0827C46.4734 39.1381 46.5183 39.183 46.5737 39.183V39.183C46.6105 39.183 46.644 39.1634 46.6618 39.1312C48.2596 36.2418 52.1099 33.2156 57.8354 33.2156C69.8226 33.2156 72.0379 40.8693 72.0379 50.8199V65.1717Z" fill="#F5F7FA"/>
<defs>
<linearGradient id="paint0_linear_2301_1857" x1="43.8182" y1="0.102295" x2="43.8182" y2="87.7387" gradientUnits="userSpaceOnUse">
<stop stop-color="#7ECEFC"/>
<stop offset="1" stop-color="#547EEC"/>
</linearGradient>
</defs>
</svg>
