<svg xmlns="http://www.w3.org/2000/svg" width="177" height="32" fill="none" viewBox="0 0 177 32"><path fill="#F5F7FA" d="M9.192 22.64C9.192 24.4107 8.872 25.872 8.232 27.024C7.61333 28.176 6.78133 29.072 5.736 29.712C4.712 30.3733 3.48533 30.9387 2.056 31.408L0.648 27.696C1.58667 27.3333 2.29067 26.9173 2.76 26.448C3.22933 25.9787 3.53867 25.4347 3.688 24.816C3.85867 24.1973 3.944 23.408 3.944 22.448V3.824H9.192V22.64ZM20.5003 8.464C23.1029 8.464 25.1403 9.264 26.6123 10.864C28.0843 12.4427 28.8203 14.6613 28.8203 17.52C28.8203 19.3333 28.4789 20.9227 27.7963 22.288C27.1349 23.632 26.1749 24.6773 24.9163 25.424C23.6789 26.1707 22.2069 26.544 20.5003 26.544C17.9189 26.544 15.8816 25.7547 14.3883 24.176C12.9163 22.576 12.1803 20.3467 12.1803 17.488C12.1803 15.6747 12.5109 14.096 13.1723 12.752C13.8549 11.3867 14.8149 10.3307 16.0523 9.584C17.3109 8.83733 18.7936 8.464 20.5003 8.464ZM20.5003 12.176C19.4763 12.176 18.7083 12.6133 18.1963 13.488C17.6843 14.3413 17.4283 15.6747 17.4283 17.488C17.4283 19.344 17.6736 20.6987 18.1643 21.552C18.6763 22.4053 19.4549 22.832 20.5003 22.832C21.5243 22.832 22.2923 22.4053 22.8043 21.552C23.3163 20.6773 23.5723 19.3333 23.5723 17.52C23.5723 15.664 23.3163 14.3093 22.8043 13.456C22.3136 12.6027 21.5456 12.176 20.5003 12.176ZM45.0193 21.072C45.0193 21.712 45.1046 22.1813 45.2753 22.48C45.4673 22.7787 45.7659 23.0027 46.1713 23.152L45.1153 26.448C44.0699 26.3627 43.2166 26.1387 42.5553 25.776C41.8939 25.392 41.3819 24.7947 41.0193 23.984C39.9099 25.6907 38.2033 26.544 35.8993 26.544C34.2139 26.544 32.8699 26.0533 31.8673 25.072C30.8646 24.0907 30.3633 22.8107 30.3633 21.232C30.3633 19.376 31.0459 17.9573 32.4113 16.976C33.7766 15.9947 35.7499 15.504 38.3313 15.504H40.0593V14.768C40.0593 13.7653 39.8459 13.0827 39.4193 12.72C38.9926 12.336 38.2459 12.144 37.1793 12.144C36.6246 12.144 35.9526 12.2293 35.1633 12.4C34.3739 12.5493 33.5633 12.7627 32.7313 13.04L31.5793 9.712C32.6459 9.30667 33.7339 8.99733 34.8433 8.784C35.9739 8.57067 37.0193 8.464 37.9792 8.464C40.4113 8.464 42.1926 8.96533 43.3233 9.968C44.4539 10.9707 45.0193 12.4747 45.0193 14.48V21.072ZM37.3713 22.928C38.5233 22.928 39.4193 22.384 40.0593 21.296V18.288H38.8113C37.6593 18.288 36.7953 18.4907 36.2193 18.896C35.6646 19.3013 35.3873 19.9307 35.3873 20.784C35.3873 21.4667 35.5579 22 35.8993 22.384C36.2619 22.7467 36.7526 22.928 37.3713 22.928ZM40.0593 5.68C39.5899 5.68 39.1846 5.60533 38.8433 5.456C38.5019 5.30667 38.1286 5.09333 37.7233 4.816C37.1899 4.432 36.7526 4.24 36.4113 4.24C36.0486 4.24 35.7393 4.35733 35.4833 4.592C35.2486 4.80533 34.9926 5.15733 34.7153 5.648L32.1873 4.432C32.6139 3.32267 33.1793 2.416 33.8833 1.712C34.6086 1.008 35.4193 0.655998 36.3153 0.655998C36.8059 0.655998 37.2219 0.741332 37.5633 0.911999C37.9259 1.06133 38.3206 1.27467 38.7473 1.552C39.0459 1.744 39.2806 1.88266 39.4513 1.968C39.6433 2.05333 39.8353 2.096 40.0273 2.096C40.3686 2.096 40.6566 1.98933 40.8913 1.776C41.1473 1.54133 41.4139 1.17867 41.6913 0.688L44.2193 1.936C43.7713 3.06667 43.1846 3.97333 42.4593 4.656C41.7553 5.33867 40.9553 5.68 40.0593 5.68ZM56.4065 8.464C59.0092 8.464 61.0465 9.264 62.5185 10.864C63.9905 12.4427 64.7265 14.6613 64.7265 17.52C64.7265 19.3333 64.3852 20.9227 63.7025 22.288C63.0412 23.632 62.0812 24.6773 60.8225 25.424C59.5852 26.1707 58.1132 26.544 56.4065 26.544C53.8252 26.544 51.7878 25.7547 50.2945 24.176C48.8225 22.576 48.0865 20.3467 48.0865 17.488C48.0865 15.6747 48.4172 14.096 49.0785 12.752C49.7612 11.3867 50.7212 10.3307 51.9585 9.584C53.2172 8.83733 54.6998 8.464 56.4065 8.464ZM56.4065 12.176C55.3825 12.176 54.6145 12.6133 54.1025 13.488C53.5905 14.3413 53.3345 15.6747 53.3345 17.488C53.3345 19.344 53.5798 20.6987 54.0705 21.552C54.5825 22.4053 55.3612 22.832 56.4065 22.832C57.4305 22.832 58.1985 22.4053 58.7105 21.552C59.2225 20.6773 59.4785 19.3333 59.4785 17.52C59.4785 15.664 59.2225 14.3093 58.7105 13.456C58.2198 12.6027 57.4518 12.176 56.4065 12.176ZM87.2318 14.256C88.7038 14.5333 89.8984 15.0773 90.8158 15.888C91.7544 16.6987 92.2238 17.9147 92.2238 19.536C92.2238 21.904 91.3704 23.5787 89.6638 24.56C87.9784 25.52 85.6104 26 82.5598 26H75.4238V3.824H81.6958C84.8104 3.824 87.1891 4.272 88.8318 5.168C90.4744 6.04267 91.2958 7.48267 91.2958 9.488C91.2958 10.7893 90.9011 11.8453 90.1118 12.656C89.3438 13.4453 88.3838 13.9787 87.2318 14.256ZM80.6718 7.536V12.688H82.6238C84.8424 12.688 85.9518 11.792 85.9518 10C85.9518 9.104 85.6531 8.47467 85.0558 8.112C84.4584 7.728 83.5091 7.536 82.2078 7.536H80.6718ZM82.5918 22.192C83.9784 22.192 85.0238 21.9893 85.7278 21.584C86.4531 21.1573 86.8158 20.3787 86.8158 19.248C86.8158 17.2 85.5358 16.176 82.9758 16.176H80.6718V22.192H82.5918ZM108.582 21.072C108.582 21.712 108.667 22.1813 108.838 22.48C109.03 22.7787 109.328 23.0027 109.734 23.152L108.678 26.448C107.632 26.3627 106.779 26.1387 106.118 25.776C105.456 25.392 104.944 24.7947 104.582 23.984C103.472 25.6907 101.766 26.544 99.4618 26.544C97.7764 26.544 96.4324 26.0533 95.4298 25.072C94.4271 24.0907 93.9258 22.8107 93.9258 21.232C93.9258 19.376 94.6084 17.9573 95.9738 16.976C97.3391 15.9947 99.3124 15.504 101.894 15.504H103.622V14.768C103.622 13.7653 103.408 13.0827 102.982 12.72C102.555 12.336 101.808 12.144 100.742 12.144C100.187 12.144 99.5151 12.2293 98.7258 12.4C97.9364 12.5493 97.1258 12.7627 96.2938 13.04L95.1418 9.712C96.2084 9.30667 97.2964 8.99733 98.4058 8.784C99.5364 8.57067 100.582 8.464 101.542 8.464C103.974 8.464 105.755 8.96533 106.886 9.968C108.016 10.9707 108.582 12.4747 108.582 14.48V21.072ZM100.934 22.928C102.086 22.928 102.982 22.384 103.622 21.296V18.288H102.374C101.222 18.288 100.358 18.4907 99.7818 18.896C99.2271 19.3013 98.9498 19.9307 98.9498 20.784C98.9498 21.4667 99.1204 22 99.4618 22.384C99.8244 22.7467 100.315 22.928 100.934 22.928ZM123.265 25.2C122.646 25.6267 121.921 25.9573 121.089 26.192C120.278 26.4267 119.468 26.544 118.657 26.544C114.945 26.5227 113.089 24.4747 113.089 20.4V12.528H110.689V9.008H113.089V5.328L118.145 4.752V9.008H122.049L121.505 12.528H118.145V20.336C118.145 21.1253 118.273 21.6907 118.529 22.032C118.785 22.3733 119.19 22.544 119.745 22.544C120.321 22.544 120.929 22.3627 121.569 22L123.265 25.2ZM130.009 9.008V26H124.953V9.008H130.009ZM127.449 0.0479984C128.323 0.0479984 129.038 0.325332 129.593 0.879999C130.169 1.41333 130.457 2.096 130.457 2.928C130.457 3.76 130.169 4.45333 129.593 5.008C129.038 5.54133 128.323 5.808 127.449 5.808C126.574 5.808 125.859 5.54133 125.305 5.008C124.75 4.45333 124.473 3.76 124.473 2.928C124.473 2.096 124.75 1.41333 125.305 0.879999C125.859 0.325332 126.574 0.0479984 127.449 0.0479984ZM139.968 8.464C141.184 8.464 142.325 8.64533 143.392 9.008C144.459 9.37067 145.397 9.88267 146.208 10.544L144.352 13.392C142.965 12.5173 141.568 12.08 140.16 12.08C139.499 12.08 138.987 12.1973 138.624 12.432C138.283 12.6453 138.112 12.9547 138.112 13.36C138.112 13.68 138.187 13.9467 138.336 14.16C138.507 14.352 138.837 14.5547 139.328 14.768C139.819 14.9813 140.576 15.2373 141.6 15.536C143.371 16.048 144.683 16.72 145.536 17.552C146.411 18.3627 146.848 19.4933 146.848 20.944C146.848 22.096 146.517 23.0987 145.856 23.952C145.195 24.784 144.288 25.424 143.136 25.872C141.984 26.32 140.704 26.544 139.296 26.544C137.867 26.544 136.533 26.32 135.296 25.872C134.08 25.424 133.045 24.8053 132.192 24.016L134.656 21.264C136.085 22.3733 137.589 22.928 139.168 22.928C139.936 22.928 140.533 22.7893 140.96 22.512C141.408 22.2347 141.632 21.84 141.632 21.328C141.632 20.9227 141.547 20.6027 141.376 20.368C141.205 20.1333 140.875 19.92 140.384 19.728C139.893 19.5147 139.115 19.2587 138.048 18.96C136.363 18.4693 135.104 17.7867 134.272 16.912C133.44 16.0373 133.024 14.9493 133.024 13.648C133.024 12.6667 133.301 11.792 133.856 11.024C134.432 10.2347 135.243 9.616 136.288 9.168C137.355 8.69867 138.581 8.464 139.968 8.464ZM160.109 25.2C159.49 25.6267 158.765 25.9573 157.933 26.192C157.122 26.4267 156.311 26.544 155.501 26.544C151.789 26.5227 149.933 24.4747 149.933 20.4V12.528H147.533V9.008H149.933V5.328L154.989 4.752V9.008H158.893L158.349 12.528H154.989V20.336C154.989 21.1253 155.117 21.6907 155.373 22.032C155.629 22.3733 156.034 22.544 156.589 22.544C157.165 22.544 157.773 22.3627 158.413 22L160.109 25.2ZM174.926 21.072C174.926 21.712 175.011 22.1813 175.182 22.48C175.374 22.7787 175.672 23.0027 176.078 23.152L175.022 26.448C173.976 26.3627 173.123 26.1387 172.462 25.776C171.8 25.392 171.288 24.7947 170.926 23.984C169.816 25.6907 168.11 26.544 165.806 26.544C164.12 26.544 162.776 26.0533 161.774 25.072C160.771 24.0907 160.27 22.8107 160.27 21.232C160.27 19.376 160.952 17.9573 162.318 16.976C163.683 15.9947 165.656 15.504 168.238 15.504H169.966V14.768C169.966 13.7653 169.752 13.0827 169.326 12.72C168.899 12.336 168.152 12.144 167.086 12.144C166.531 12.144 165.859 12.2293 165.07 12.4C164.28 12.5493 163.47 12.7627 162.638 13.04L161.486 9.712C162.552 9.30667 163.64 8.99733 164.75 8.784C165.88 8.57067 166.926 8.464 167.885 8.464C170.318 8.464 172.099 8.96533 173.23 9.968C174.36 10.9707 174.926 12.4747 174.926 14.48V21.072ZM167.278 22.928C168.43 22.928 169.326 22.384 169.966 21.296V18.288H168.718C167.566 18.288 166.702 18.4907 166.126 18.896C165.571 19.3013 165.294 19.9307 165.294 20.784C165.294 21.4667 165.464 22 165.806 22.384C166.168 22.7467 166.659 22.928 167.278 22.928Z"/></svg>