<?xml version="1.0" encoding="UTF-8"?>
<svg xmlns="http://www.w3.org/2000/svg" xmlns:xlink="http://www.w3.org/1999/xlink" width="50pt" height="50pt" viewBox="0 0 50 50" version="1.1">
<g id="surface1">
<path style=" stroke:none;fill-rule:nonzero;fill:rgb(0%,0%,0%);fill-opacity:1;" d="M 3.914062 2.597656 C 3.105469 2.8125 2.273438 3.3125 1.609375 3.964844 C 0.945312 4.617188 0.605469 5.136719 0.273438 6.015625 L 0.046875 6.59375 L 0.0195312 19.902344 C -0.0078125 34.5 -0.03125 33.835938 0.578125 35.039062 C 1.09375 36.0625 1.953125 36.90625 3.015625 37.441406 C 4.054688 37.96875 4.265625 37.988281 11.453125 37.988281 C 17.714844 37.988281 18.078125 38 18.027344 38.15625 C 18 38.25 17.664062 39.914062 17.285156 41.84375 C 16.90625 43.78125 16.570312 45.4375 16.542969 45.527344 C 16.492188 45.695312 16.28125 45.703125 13.828125 45.703125 L 11.164062 45.703125 L 10.90625 45.945312 C 10.5 46.359375 10.5 46.894531 10.90625 47.304688 L 11.164062 47.558594 L 38.835938 47.558594 L 39.09375 47.3125 C 39.5 46.90625 39.5 46.367188 39.09375 45.957031 L 38.835938 45.703125 L 36.171875 45.703125 C 33.71875 45.703125 33.507812 45.695312 33.457031 45.527344 C 33.429688 45.4375 33.09375 43.78125 32.714844 41.84375 C 32.335938 39.914062 32 38.25 31.972656 38.15625 C 31.921875 38 32.285156 37.988281 38.546875 37.988281 C 45.734375 37.988281 45.945312 37.96875 46.984375 37.441406 C 48.046875 36.90625 48.90625 36.0625 49.421875 35.039062 C 50.03125 33.835938 50.007812 34.5 49.980469 19.902344 L 49.953125 6.59375 L 49.726562 6.015625 C 49.609375 5.695312 49.394531 5.234375 49.257812 5 C 48.886719 4.367188 47.882812 3.417969 47.195312 3.054688 C 45.96875 2.390625 47.578125 2.441406 24.953125 2.453125 C 7.363281 2.453125 4.367188 2.46875 3.914062 2.597656 Z M 45.265625 4.40625 C 46.359375 4.609375 47.21875 5.242188 47.714844 6.21875 L 48 6.789062 L 48.027344 17.546875 L 48.046875 28.320312 L 1.953125 28.320312 L 1.953125 26.464844 L 4.835938 26.464844 C 8.117188 26.464844 8.300781 26.4375 8.554688 25.828125 C 8.691406 25.507812 8.679688 25.4375 8.523438 25.117188 C 8.234375 24.523438 8.171875 24.511719 4.902344 24.511719 L 1.953125 24.511719 L 1.972656 15.644531 L 2 6.789062 L 2.234375 6.296875 C 2.726562 5.320312 3.5625 4.648438 4.589844 4.433594 C 5.332031 4.265625 44.414062 4.25 45.265625 4.40625 Z M 48.027344 31.90625 C 48 33.4375 47.976562 33.585938 47.742188 34.09375 C 47.414062 34.796875 46.804688 35.398438 46.101562 35.734375 L 45.554688 35.984375 L 4.445312 35.984375 L 3.898438 35.734375 C 3.585938 35.585938 3.15625 35.28125 2.929688 35.058594 C 2.703125 34.835938 2.402344 34.40625 2.257812 34.09375 C 2.023438 33.585938 2 33.4375 1.972656 31.90625 L 1.945312 30.273438 L 48.054688 30.273438 Z M 30.03125 38.203125 C 30.273438 39.21875 31.503906 45.617188 31.464844 45.65625 C 31.398438 45.722656 18.601562 45.722656 18.535156 45.65625 C 18.496094 45.617188 19.726562 39.21875 19.96875 38.203125 L 20.019531 37.988281 L 29.980469 37.988281 Z M 30.03125 38.203125 "/>
<path style=" stroke:none;fill-rule:nonzero;fill:rgb(0%,0%,0%);fill-opacity:1;" d="M 22.636719 8.484375 C 22.34375 8.75 22.3125 8.820312 22.285156 9.511719 C 22.21875 10.859375 22.480469 11.425781 23.195312 11.425781 C 23.953125 11.425781 24.21875 11.023438 24.21875 9.863281 C 24.21875 8.953125 24.054688 8.484375 23.671875 8.3125 C 23.28125 8.132812 22.96875 8.183594 22.636719 8.484375 Z M 22.636719 8.484375 "/>
<path style=" stroke:none;fill-rule:nonzero;fill:rgb(0%,0%,0%);fill-opacity:1;" d="M 18.984375 9.921875 C 18.640625 10.085938 18.457031 10.410156 18.457031 10.839844 C 18.457031 11.179688 19.445312 12.285156 19.96875 12.539062 C 20.605469 12.84375 21.289062 12.402344 21.289062 11.699219 C 21.289062 11.359375 21.21875 11.230469 20.683594 10.671875 C 20.148438 10.117188 19.628906 9.757812 19.367188 9.765625 C 19.328125 9.765625 19.148438 9.835938 18.984375 9.921875 Z M 18.984375 9.921875 "/>
<path style=" stroke:none;fill-rule:nonzero;fill:rgb(0%,0%,0%);fill-opacity:1;" d="M 26.710938 9.902344 C 26.554688 9.96875 26.140625 10.320312 25.8125 10.683594 C 25.28125 11.242188 25.195312 11.386719 25.195312 11.699219 C 25.195312 12.109375 25.4375 12.453125 25.851562 12.609375 C 26.269531 12.765625 26.6875 12.546875 27.382812 11.804688 C 27.929688 11.242188 28.027344 11.074219 28.027344 10.78125 C 28.027344 10.34375 27.804688 10 27.421875 9.875 C 27.050781 9.746094 27.070312 9.746094 26.710938 9.902344 Z M 26.710938 9.902344 "/>
<path style=" stroke:none;fill-rule:nonzero;fill:rgb(0%,0%,0%);fill-opacity:1;" d="M 22.570312 13.515625 C 22.296875 13.664062 22.078125 14.023438 22.070312 14.328125 C 22.070312 14.539062 23.953125 22.84375 24.132812 23.40625 C 24.328125 24.003906 24.96875 24.289062 25.515625 24.015625 C 25.632812 23.953125 26.113281 23.523438 26.582031 23.066406 L 27.429688 22.226562 L 28.546875 23.3125 C 29.734375 24.484375 30.039062 24.640625 30.539062 24.375 C 30.683594 24.296875 31.328125 23.710938 31.960938 23.066406 C 33.054688 21.953125 33.105469 21.882812 33.105469 21.492188 C 33.105469 21.09375 33.054688 21.023438 31.984375 19.929688 L 30.867188 18.789062 L 31.554688 18.105469 C 32.421875 17.265625 32.8125 16.738281 32.8125 16.4375 C 32.8125 16.074219 32.558594 15.664062 32.257812 15.546875 C 31.960938 15.429688 23.105469 13.378906 22.921875 13.378906 C 22.851562 13.390625 22.695312 13.445312 22.570312 13.515625 Z M 27.195312 16.320312 C 28.652344 16.648438 29.851562 16.933594 29.875 16.953125 C 29.902344 16.984375 29.628906 17.296875 29.277344 17.65625 C 28.210938 18.742188 28.242188 18.898438 29.71875 20.382812 L 30.800781 21.484375 L 30.46875 21.828125 L 30.136719 22.167969 L 29.054688 21.101562 C 28.46875 20.507812 27.859375 19.980469 27.714844 19.929688 C 27.3125 19.773438 26.992188 19.941406 26.257812 20.664062 C 25.625 21.289062 25.605469 21.296875 25.546875 21.0625 C 25.410156 20.515625 24.316406 15.734375 24.316406 15.683594 C 24.316406 15.65625 24.375 15.65625 24.445312 15.671875 C 24.5 15.695312 25.75 15.984375 27.195312 16.320312 Z M 27.195312 16.320312 "/>
<path style=" stroke:none;fill-rule:nonzero;fill:rgb(0%,0%,0%);fill-opacity:1;" d="M 17.148438 13.925781 C 16.765625 14.316406 16.789062 14.929688 17.195312 15.273438 C 17.480469 15.507812 17.558594 15.527344 18.507812 15.527344 C 19.414062 15.527344 19.550781 15.507812 19.773438 15.304688 C 19.953125 15.15625 20.046875 14.953125 20.085938 14.679688 C 20.136719 14.316406 20.109375 14.238281 19.84375 13.964844 C 19.550781 13.671875 19.539062 13.671875 18.476562 13.671875 C 17.453125 13.671875 17.402344 13.679688 17.148438 13.925781 Z M 17.148438 13.925781 "/>
<path style=" stroke:none;fill-rule:nonzero;fill:rgb(0%,0%,0%);fill-opacity:1;" d="M 19.96875 16.640625 C 19.8125 16.710938 19.40625 17.0625 19.070312 17.421875 C 18.5625 17.960938 18.457031 18.132812 18.457031 18.40625 C 18.457031 18.898438 18.886719 19.355469 19.355469 19.355469 C 19.824219 19.355469 19.992188 19.257812 20.683594 18.507812 C 21.191406 17.96875 21.289062 17.804688 21.289062 17.519531 C 21.289062 17.078125 21.0625 16.738281 20.683594 16.609375 C 20.3125 16.484375 20.332031 16.484375 19.96875 16.640625 Z M 19.96875 16.640625 "/>
<path style=" stroke:none;fill-rule:nonzero;fill:rgb(0%,0%,0%);fill-opacity:1;" d="M 10.195312 24.609375 C 9.707031 24.804688 9.5 25.59375 9.8125 26.035156 C 10.1875 26.570312 11.085938 26.53125 11.375 25.976562 C 11.816406 25.125 11.0625 24.257812 10.195312 24.609375 Z M 10.195312 24.609375 "/>
<path style=" stroke:none;fill-rule:nonzero;fill:rgb(0%,0%,0%);fill-opacity:1;" d="M 24.140625 31.503906 C 23.339844 31.90625 22.929688 32.792969 23.15625 33.632812 C 23.390625 34.5 24.101562 35.058594 25 35.058594 C 26.992188 35.058594 27.636719 32.390625 25.859375 31.503906 C 25.214844 31.179688 24.785156 31.179688 24.140625 31.503906 Z M 24.140625 31.503906 "/>
</g>
</svg>
