<?xml version="1.0" encoding="UTF-8"?>
<svg xmlns="http://www.w3.org/2000/svg" xmlns:xlink="http://www.w3.org/1999/xlink" width="50pt" height="50pt" viewBox="0 0 50 50" version="1.1">
<g id="surface1">
<path style=" stroke:none;fill-rule:nonzero;fill:rgb(0%,0%,0%);fill-opacity:1;" d="M 13.976562 0.109375 C 12.296875 0.4375 10.722656 1.914062 10.1875 3.664062 C 10.019531 4.21875 10.007812 5.136719 10.007812 25 C 10.007812 44.863281 10.019531 45.78125 10.1875 46.335938 C 10.742188 48.132812 12.296875 49.570312 14.054688 49.902344 C 14.765625 50.039062 35.234375 50.039062 35.945312 49.902344 C 37.703125 49.570312 39.257812 48.132812 39.8125 46.335938 C 39.980469 45.78125 39.992188 44.863281 39.992188 25 C 39.992188 5.136719 39.980469 4.21875 39.8125 3.664062 C 39.257812 1.867188 37.703125 0.429688 35.945312 0.0976562 C 35.292969 -0.0195312 14.601562 -0.0195312 13.976562 0.109375 Z M 36.113281 2.792969 C 36.386719 2.929688 36.75 3.210938 36.914062 3.417969 C 37.539062 4.210938 37.5 2.609375 37.5 25 C 37.5 47.390625 37.539062 45.789062 36.914062 46.582031 C 36.75 46.789062 36.386719 47.070312 36.113281 47.207031 L 35.605469 47.460938 L 14.394531 47.460938 L 13.886719 47.207031 C 13.613281 47.070312 13.25 46.789062 13.085938 46.582031 C 12.460938 45.789062 12.5 47.390625 12.5 25 C 12.5 2.609375 12.460938 4.210938 13.085938 3.417969 C 13.25 3.210938 13.613281 2.929688 13.886719 2.792969 L 14.394531 2.539062 L 35.605469 2.539062 Z M 36.113281 2.792969 "/>
<path style=" stroke:none;fill-rule:nonzero;fill:rgb(0%,0%,0%);fill-opacity:1;" d="M 19.765625 4.382812 C 19.460938 4.570312 19.140625 5.109375 19.140625 5.421875 C 19.140625 5.734375 19.460938 6.269531 19.765625 6.453125 C 20.390625 6.835938 21.203125 6.59375 21.515625 5.929688 C 21.71875 5.507812 21.71875 5.359375 21.542969 4.929688 C 21.269531 4.277344 20.390625 4.003906 19.765625 4.382812 Z M 19.765625 4.382812 "/>
<path style=" stroke:none;fill-rule:nonzero;fill:rgb(0%,0%,0%);fill-opacity:1;" d="M 23.898438 4.40625 C 23.339844 4.824219 23.195312 5.46875 23.535156 6.023438 C 23.898438 6.621094 24.015625 6.640625 27.117188 6.640625 C 29.695312 6.640625 29.960938 6.621094 30.234375 6.453125 C 30.539062 6.269531 30.859375 5.734375 30.859375 5.421875 C 30.859375 5.109375 30.539062 4.570312 30.234375 4.382812 C 29.953125 4.21875 29.695312 4.199219 27.050781 4.199219 C 24.289062 4.210938 24.160156 4.21875 23.898438 4.40625 Z M 23.898438 4.40625 "/>
<path style=" stroke:none;fill-rule:nonzero;fill:rgb(0%,0%,0%);fill-opacity:1;" d="M 24.328125 40.929688 C 23.242188 41.257812 22.539062 42.21875 22.539062 43.359375 C 22.539062 44.34375 23.046875 45.125 23.976562 45.566406 C 24.914062 46.015625 26.09375 45.78125 26.828125 45.007812 C 27.675781 44.109375 27.675781 42.648438 26.835938 41.648438 C 26.308594 41.035156 25.109375 40.683594 24.328125 40.929688 Z M 24.328125 40.929688 "/>
</g>
</svg>
