<svg xmlns="http://www.w3.org/2000/svg" xmlns:xlink="http://www.w3.org/1999/xlink" width="50pt" height="50pt" version="1.1" viewBox="0 0 50 50"><g id="surface1"><path style="stroke:none;fill-rule:nonzero;fill:#000;fill-opacity:1" d="M 2.296875 0.996094 C 1.398438 1.328125 0.683594 1.992188 0.265625 2.898438 L 0.046875 3.367188 L 0.0195312 19.679688 C 0 31.710938 0.0195312 36.125 0.0976562 36.523438 C 0.164062 36.816406 0.3125 37.234375 0.4375 37.460938 C 0.742188 37.976562 1.464844 38.640625 2.03125 38.898438 C 2.492188 39.109375 2.507812 39.109375 11.203125 39.140625 L 19.921875 39.171875 L 19.921875 39.492188 C 19.921875 40.125 19.628906 41.328125 19.328125 42.011719 C 19.101562 42.492188 18.847656 42.832031 18.445312 43.203125 C 17.65625 43.945312 17.285156 44.054688 15.28125 44.132812 C 13.9375 44.1875 13.546875 44.238281 13.183594 44.40625 C 12.636719 44.640625 12.140625 45.136719 11.90625 45.65625 C 11.660156 46.179688 11.660156 47.179688 11.90625 47.703125 C 12.128906 48.203125 12.898438 48.886719 13.367188 49.023438 C 13.847656 49.160156 36.152344 49.160156 36.632812 49.023438 C 37.101562 48.886719 37.871094 48.203125 38.09375 47.703125 C 38.339844 47.179688 38.339844 46.179688 38.09375 45.65625 C 37.859375 45.136719 37.363281 44.640625 36.816406 44.40625 C 36.453125 44.238281 36.0625 44.1875 34.71875 44.132812 C 32.714844 44.054688 32.34375 43.945312 31.554688 43.203125 C 31.152344 42.832031 30.90625 42.5 30.683594 42.023438 C 30.371094 41.335938 30.078125 40.117188 30.078125 39.511719 L 30.078125 39.171875 L 38.796875 39.140625 C 47.492188 39.109375 47.507812 39.109375 47.96875 38.898438 C 48.535156 38.640625 49.257812 37.976562 49.5625 37.460938 C 49.6875 37.234375 49.835938 36.816406 49.902344 36.523438 C 49.980469 36.125 50 31.710938 49.980469 19.679688 L 49.953125 3.367188 L 49.6875 2.8125 C 49.375 2.140625 48.75 1.503906 48.09375 1.171875 L 47.609375 0.929688 L 25.097656 0.90625 C 9.0625 0.898438 2.5 0.929688 2.296875 0.996094 Z M 47.429688 2.703125 C 47.617188 2.792969 47.890625 3.039062 48.027344 3.25 L 48.289062 3.652344 L 48.289062 30.8125 L 47.492188 30.839844 L 46.679688 30.867188 L 46.679688 17.871094 C 46.679688 4.445312 46.6875 4.617188 46.296875 4.328125 C 46.074219 4.148438 3.925781 4.148438 3.703125 4.328125 C 3.3125 4.617188 3.320312 4.445312 3.320312 17.871094 L 3.320312 30.867188 L 2.519531 30.839844 L 1.710938 30.8125 L 1.710938 3.652344 L 1.960938 3.261719 C 2.492188 2.46875 0.242188 2.539062 24.980469 2.539062 C 45.359375 2.539062 47.117188 2.546875 47.429688 2.703125 Z M 45.019531 18.3125 L 45.019531 30.761719 L 4.980469 30.761719 L 4.980469 5.859375 L 45.019531 5.859375 Z M 48.339844 34.328125 C 48.339844 36.308594 48.289062 36.5625 47.792969 37.03125 C 47.636719 37.179688 47.382812 37.34375 47.234375 37.390625 C 47.039062 37.46875 40.273438 37.5 24.992188 37.5 C 1.074219 37.5 2.675781 37.539062 2.128906 36.953125 C 1.710938 36.492188 1.660156 36.230469 1.660156 34.316406 L 1.660156 32.519531 L 48.339844 32.519531 Z M 28.359375 39.375 C 28.378906 39.5 28.445312 39.960938 28.515625 40.398438 C 28.691406 41.699219 29.316406 43.273438 29.914062 43.914062 L 30.109375 44.140625 L 19.890625 44.140625 L 20.085938 43.914062 C 20.683594 43.273438 21.308594 41.699219 21.484375 40.398438 C 21.554688 39.960938 21.621094 39.5 21.640625 39.375 L 21.679688 39.160156 L 28.320312 39.160156 Z M 36.386719 46.101562 C 36.6875 46.386719 36.699219 46.921875 36.40625 47.234375 L 36.203125 47.460938 L 13.828125 47.460938 L 13.601562 47.246094 C 13.183594 46.855469 13.390625 46.054688 13.9375 45.890625 C 14.003906 45.867188 19.03125 45.859375 25.109375 45.867188 L 36.152344 45.878906 Z M 36.386719 46.101562"/><path style="stroke:none;fill-rule:nonzero;fill:#000;fill-opacity:1" d="M 11.085938 7.765625 L 10.839844 8 L 10.839844 24.40625 L 11.308594 24.953125 L 21.101562 25 L 30.898438 25.046875 L 31.328125 26.464844 C 31.789062 28.007812 31.992188 28.320312 32.539062 28.320312 C 32.773438 28.320312 32.976562 28.171875 33.554688 27.617188 L 34.289062 26.914062 L 35.332031 27.960938 C 36.386719 29.015625 36.671875 29.199219 37.0625 29.121094 C 37.1875 29.101562 37.898438 28.457031 38.664062 27.695312 C 40.4375 25.898438 40.429688 26.054688 38.914062 24.523438 L 37.804688 23.390625 L 38.476562 22.695312 C 39.023438 22.140625 39.160156 21.933594 39.160156 21.699219 C 39.160156 21.152344 38.847656 20.945312 37.304688 20.488281 L 35.890625 20.058594 L 35.859375 14.042969 L 35.839844 8.039062 L 35.59375 7.773438 L 35.359375 7.519531 L 11.320312 7.519531 Z M 34.179688 10.398438 L 34.179688 11.621094 L 12.5 11.621094 L 12.5 9.179688 L 34.179688 9.179688 Z M 34.179688 16.464844 C 34.179688 18.898438 34.148438 19.539062 34.0625 19.5 C 33.390625 19.25 30.214844 18.359375 29.96875 18.359375 C 29.53125 18.359375 29.199219 18.691406 29.199219 19.109375 C 29.199219 19.367188 30.085938 22.53125 30.34375 23.210938 C 30.382812 23.3125 28.5625 23.339844 21.445312 23.339844 L 12.5 23.339844 L 12.5 13.378906 L 34.179688 13.378906 Z M 34.863281 21.503906 C 35.800781 21.777344 36.609375 22.023438 36.648438 22.039062 C 36.6875 22.070312 36.554688 22.273438 36.347656 22.5 C 35.585938 23.328125 35.65625 23.5625 36.992188 24.921875 L 38.027344 25.976562 L 37.453125 26.5625 L 36.875 27.148438 L 35.839844 26.132812 C 34.5 24.8125 34.132812 24.734375 33.289062 25.554688 C 33.09375 25.742188 32.910156 25.859375 32.882812 25.8125 C 32.859375 25.773438 32.617188 24.960938 32.34375 24.023438 C 32.070312 23.085938 31.71875 21.894531 31.5625 21.375 L 31.28125 20.4375 L 32.21875 20.722656 C 32.734375 20.878906 33.925781 21.230469 34.863281 21.503906 Z M 34.863281 21.503906"/><path style="stroke:none;fill-rule:nonzero;fill:#000;fill-opacity:1" d="M 14.472656 16.894531 C 14.160156 17.1875 14.140625 17.351562 14.179688 19.367188 C 14.210938 21.113281 14.21875 21.191406 14.433594 21.40625 C 14.648438 21.632812 14.65625 21.632812 18.144531 21.660156 C 20.058594 21.679688 21.726562 21.660156 21.84375 21.632812 C 21.960938 21.601562 22.15625 21.484375 22.265625 21.367188 C 22.453125 21.171875 22.460938 21.023438 22.460938 19.171875 C 22.460938 17.1875 22.460938 17.179688 22.21875 16.945312 L 21.984375 16.699219 L 18.328125 16.699219 C 14.804688 16.699219 14.679688 16.710938 14.472656 16.894531 Z M 20.800781 19.1875 L 20.800781 20.019531 L 15.820312 20.019531 L 15.820312 18.359375 L 20.800781 18.359375 Z M 20.800781 19.1875"/><path style="stroke:none;fill-rule:nonzero;fill:#000;fill-opacity:1" d="M 21.933594 34.433594 C 21.59375 34.785156 21.601562 35.1875 21.960938 35.554688 L 22.246094 35.839844 L 27.753906 35.839844 L 28.039062 35.554688 C 28.398438 35.1875 28.40625 34.785156 28.066406 34.433594 L 27.804688 34.179688 L 22.195312 34.179688 Z M 21.933594 34.433594"/></g></svg>